<?xml version="1.0" standalone="no"?>
<!DOCTYPE svg PUBLIC "-//W3C//DTD SVG 20010904//EN"
 "http://www.w3.org/TR/2001/REC-SVG-20010904/DTD/svg10.dtd">
<svg version="1.0" xmlns="http://www.w3.org/2000/svg"
 width="580.000000pt" height="580.000000pt" viewBox="0 0 580.000000 580.000000"
 preserveAspectRatio="xMidYMid meet">
<metadata>
Created by potrace 1.11, written by Peter Selinger 2001-2013
</metadata>
<g transform="translate(0.000000,580.000000) scale(0.100000,-0.100000)"
fill="#000000" stroke="none">
<path d="M1200 3820 l0 -720 740 0 740 0 0 720 0 720 -740 0 -740 0 0 -720z
m1230 0 l0 -470 -487 2 -488 3 -3 455 c-1 250 0 461 3 468 3 9 111 12 490 12
l485 0 0 -470z"/>
<path d="M1800 3820 l0 -140 145 0 145 0 0 140 0 140 -145 0 -145 0 0 -140z"/>
<path d="M3130 3820 l0 -720 740 0 740 0 0 720 0 720 -740 0 -740 0 0 -720z
m1215 0 l0 -465 -474 -3 c-373 -2 -476 0 -483 10 -9 15 -11 888 -2 912 6 15
55 16 483 14 l476 -3 0 -465z"/>
<path d="M3720 3820 l0 -140 150 0 150 0 0 140 0 140 -150 0 -150 0 0 -140z"/>
<path d="M1200 1980 l0 -720 740 0 740 0 0 720 0 720 -740 0 -740 0 0 -720z
m1230 0 l0 -470 -487 2 -488 3 -3 455 c-1 250 0 461 3 468 3 9 111 12 490 12
l485 0 0 -470z"/>
<path d="M1800 1980 l0 -140 145 0 145 0 0 140 0 140 -145 0 -145 0 0 -140z"/>
<path d="M3130 2625 l0 -75 120 0 120 0 0 75 0 75 -120 0 -120 0 0 -75z"/>
<path d="M3650 2550 l0 -150 -260 0 -260 0 0 -570 0 -570 426 0 426 0 -3 158
-4 157 315 2 315 2 3 561 2 560 -480 0 -480 0 0 -150z"/>
<path d="M4124 1421 c-2 -2 -4 -40 -4 -83 l0 -78 245 0 246 0 -3 80 -3 81
-238 2 c-131 1 -241 0 -243 -2z"/>
</g>
</svg>
